<svg width="35" height="31" viewBox="0 0 35 31" fill="none" xmlns="http://www.w3.org/2000/svg">
<path fill-rule="evenodd" clip-rule="evenodd" d="M15.2276 0.526423C18.548 -0.353705 22.069 -0.125646 25.2462 1.17625C28.4238 2.47829 31.0838 4.78351 32.8092 7.73986C34.5349 10.6967 35.2274 14.1372 34.7763 17.5266C34.3253 20.9159 32.7568 24.0589 30.3198 26.4697C27.8833 28.88 24.7149 30.4241 21.3075 30.8679C17.9003 31.3116 14.4388 30.6312 11.4589 28.9292L13.9386 24.5875C15.9692 25.7472 18.3328 26.213 20.6618 25.9097C22.9906 25.6064 25.1489 24.5519 26.8034 22.9151C28.4576 21.2788 29.5159 19.1523 29.82 16.867C30.1241 14.582 29.658 12.26 28.4908 10.2601C27.3234 8.25981 25.5181 6.69113 23.3504 5.80289C21.1823 4.9145 18.7769 4.75829 16.5087 5.35951C14.2408 5.96066 12.242 7.28396 10.8191 9.11836C9.49971 10.8193 8.74294 12.8725 8.64017 15H12.2562L6.12811 25.5L5.81072e-05 15H3.63624C3.74176 11.7583 4.87121 8.62854 6.8683 6.05386C8.96752 3.3475 11.907 1.40662 15.2276 0.526423Z" fill="#373737"/>
</svg>
