<svg width="36" height="32" viewBox="0 0 36 32" fill="none" xmlns="http://www.w3.org/2000/svg">
<path fill-rule="evenodd" clip-rule="evenodd" d="M20.0117 1.02816C16.7159 0.145047 13.2208 0.37413 10.0684 1.67988C6.91609 2.98562 4.28268 5.29506 2.57664 8.25001C0.870595 11.205 0.187268 14.6403 0.632634 18.0232C1.078 21.4061 2.62717 24.5475 5.03987 26.9602C7.45258 29.3729 10.594 30.922 13.9769 31.3674C17.3598 31.8128 20.7951 31.1294 23.75 29.4234L21.25 25.0933C19.2483 26.249 16.9211 26.7119 14.6295 26.4102C12.3379 26.1085 10.2098 25.059 8.57541 23.4246C6.94099 21.7902 5.89156 19.6622 5.58986 17.3705C5.28816 15.0789 5.75106 12.7517 6.90676 10.75C8.06247 8.74827 9.84639 7.18381 11.9819 6.29927C14.1173 5.41474 16.485 5.25955 18.7176 5.85779C20.9503 6.45602 22.9231 7.77425 24.3302 9.60801C25.6356 11.3092 26.3864 13.366 26.4881 15.5H22.9379L29 26L35.0622 15.5H31.492C31.3876 12.2649 30.2725 9.13877 28.297 6.56421C26.2199 3.85722 23.3075 1.91127 20.0117 1.02816Z" fill="#373737"/>
</svg>
