<svg width="30" height="27" viewBox="0 0 30 27" fill="none" xmlns="http://www.w3.org/2000/svg">
<path fill-rule="evenodd" clip-rule="evenodd" d="M12.5349 0.9568C15.3144 0.220029 18.2619 0.410901 20.9218 1.50083C23.5821 2.59091 25.81 4.52123 27.2554 6.9979C28.7012 9.47505 29.2816 12.3579 28.9036 15.1982C28.5256 18.0383 27.2113 20.6713 25.1703 22.6905C23.1296 24.7092 20.4767 26.0017 17.6245 26.3732C14.7724 26.7447 11.8746 26.1752 9.37955 24.7501L11.8593 20.4084C13.405 21.2912 15.2049 21.6461 16.9787 21.4151C18.7524 21.1841 20.3952 20.381 21.6539 19.1359C22.9121 17.8912 23.7162 16.2747 23.9473 14.5386C24.1783 12.8027 23.8243 11.0384 22.9371 9.51819C22.0496 7.99753 20.6764 6.80375 19.026 6.12748C17.3752 5.45105 15.5433 5.33203 13.816 5.78989C12.0889 6.24768 10.568 7.25509 9.48594 8.65006C8.48753 9.93722 7.91334 11.4888 7.83088 13.0967H10.2625L5.32049 21.5645L0.378524 13.0967H2.82686C2.91213 10.3746 3.85902 7.74644 5.53514 5.58556C7.29351 3.31863 9.75505 1.69364 12.5349 0.9568Z" fill="white"/>
</svg>
